<svg width="22" height="24" viewBox="0 0 22 24" fill="none" xmlns="http://www.w3.org/2000/svg">
<path d="M13.6875 12V9.3125H8.3125V12H13.6875ZM13.6875 17.3125V14.6875H8.3125V17.3125H13.6875ZM21.6875 6.6875V9.3125H18.875C18.9583 9.89583 19 10.3542 19 10.6875V12H21.6875V14.6875H19V16C19 16.2917 18.9583 16.7292 18.875 17.3125H21.6875V20H17.9375C17.2292 21.2083 16.25 22.1875 15 22.9375C13.7917 23.6458 12.4583 24 11 24C9.54167 24 8.1875 23.6458 6.9375 22.9375C5.72917 22.1875 4.77083 21.2083 4.0625 20H0.3125V17.3125H3.125C3.04167 16.7292 3 16.2917 3 16V14.6875H0.3125V12H3V10.6875C3 10.3542 3.04167 9.89583 3.125 9.3125H0.3125V6.6875H4.0625C4.6875 5.64583 5.5 4.77083 6.5 4.0625L4.3125 1.875L6.1875 0L9.125 2.875C9.75 2.75 10.375 2.6875 11 2.6875C11.625 2.6875 12.25 2.75 12.875 2.875L15.8125 0L17.6875 1.875L15.5 4.0625C16.5417 4.77083 17.3542 5.64583 17.9375 6.6875H21.6875Z" fill="#1D2930"/>
</svg>
