<svg width="24" height="24" viewBox="0 0 24 24" fill="none" xmlns="http://www.w3.org/2000/svg">
<path d="M21.3125 6.6875V5.3125H18.6875V10.4375C20.4375 9.8125 21.3125 8.5625 21.3125 6.6875ZM5.3125 10.4375V5.3125H2.6875V6.6875C2.6875 8.5625 3.5625 9.8125 5.3125 10.4375ZM21.3125 2.6875C22.0208 2.6875 22.6458 2.95833 23.1875 3.5C23.7292 4 24 4.60417 24 5.3125V6.6875C24 8.35417 23.4375 9.8125 22.3125 11.0625C21.1875 12.3125 19.7917 13.0417 18.125 13.25C17.75 14.1667 17.0833 15 16.125 15.75C15.2083 16.5 14.2708 16.9792 13.3125 17.1875V21.3125H18.6875V24H5.3125V21.3125H10.6875V17.1875C9.72917 16.9792 8.77083 16.5 7.8125 15.75C6.89583 15 6.25 14.1667 5.875 13.25C4.20833 13.0417 2.8125 12.3125 1.6875 11.0625C0.5625 9.8125 0 8.35417 0 6.6875V5.3125C0 4.60417 0.270833 4 0.8125 3.5C1.35417 2.95833 1.97917 2.6875 2.6875 2.6875H5.3125V0H18.6875V2.6875H21.3125Z" fill="#1D2930"/>
</svg>
