<svg width="32" height="16" viewBox="0 0 32 16" fill="none" xmlns="http://www.w3.org/2000/svg">
<path d="M16 9C17.0833 9 18.1042 9.125 19.0625 9.375C20.0208 9.58333 20.875 9.85417 21.625 10.1875C22.375 10.5208 22.9583 11.0208 23.375 11.6875C23.7917 12.3542 24 13.0625 24 13.8125V16H8V13.875C8 13.0833 8.20833 12.3542 8.625 11.6875C9.04167 11.0208 9.625 10.5208 10.375 10.1875C11.125 9.85417 11.9792 9.58333 12.9375 9.375C13.8958 9.125 14.9167 9 16 9ZM5.3125 9.3125C6.0625 9.3125 6.6875 9.0625 7.1875 8.5625C7.72917 8.02083 8 7.39583 8 6.6875C8 5.9375 7.72917 5.3125 7.1875 4.8125C6.6875 4.27083 6.0625 4 5.3125 4C4.60417 4 3.97917 4.27083 3.4375 4.8125C2.9375 5.3125 2.6875 5.9375 2.6875 6.6875C2.6875 7.39583 2.9375 8.02083 3.4375 8.5625C3.97917 9.0625 4.60417 9.3125 5.3125 9.3125ZM6.8125 10.8125C6.60417 10.7708 6.375 10.75 6.125 10.75C5.875 10.7083 5.60417 10.6875 5.3125 10.6875C4.64583 10.6875 4 10.75 3.375 10.875C2.79167 11 2.20833 11.1875 1.625 11.4375C1.125 11.6458 0.729167 11.9792 0.4375 12.4375C0.145833 12.8958 0 13.3958 0 13.9375V16H6V13.875C6 12.7917 6.27083 11.7708 6.8125 10.8125ZM26.6875 9.3125C27.3958 9.3125 28 9.0625 28.5 8.5625C29.0417 8.02083 29.3125 7.39583 29.3125 6.6875C29.3125 5.9375 29.0417 5.3125 28.5 4.8125C28 4.27083 27.3958 4 26.6875 4C25.9375 4 25.2917 4.27083 24.75 4.8125C24.25 5.3125 24 5.9375 24 6.6875C24 7.39583 24.25 8.02083 24.75 8.5625C25.2917 9.0625 25.9375 9.3125 26.6875 9.3125ZM32 13.9375C32 13.3958 31.8542 12.8958 31.5625 12.4375C31.2708 11.9792 30.875 11.6458 30.375 11.4375C29.7917 11.1875 29.1875 11 28.5625 10.875C27.9792 10.75 27.3542 10.6875 26.6875 10.6875C26.3958 10.6875 26.125 10.7083 25.875 10.75C25.625 10.75 25.3958 10.7708 25.1875 10.8125C25.7292 11.7708 26 12.7917 26 13.875V16H32V13.9375ZM16 0C16.75 0 17.4167 0.1875 18 0.5625C18.625 0.895833 19.1042 1.375 19.4375 2C19.8125 2.58333 20 3.25 20 4C20 4.75 19.8125 5.4375 19.4375 6.0625C19.1042 6.64583 18.625 7.125 18 7.5C17.4167 7.83333 16.75 8 16 8C15.25 8 14.5625 7.83333 13.9375 7.5C13.3542 7.125 12.875 6.64583 12.5 6.0625C12.1667 5.4375 12 4.75 12 4C12 3.25 12.1667 2.58333 12.5 2C12.875 1.375 13.3542 0.895833 13.9375 0.5625C14.5625 0.1875 15.25 0 16 0Z" fill="#1D2930"/>
</svg>
