<svg width="28" height="25" viewBox="0 0 28 25" fill="none" xmlns="http://www.w3.org/2000/svg">
<path d="M20 10.875C20.25 10.625 20.375 10.3125 20.375 9.9375C20.375 9.5625 20.25 9.25 20 9L13.125 2.1875C12.625 1.64583 12.0208 1.29167 11.3125 1.125C10.6458 0.958333 9.95833 0.958333 9.25 1.125C8.58333 1.29167 8 1.64583 7.5 2.1875L1.8125 7.8125C1.3125 8.35417 0.958333 8.95833 0.75 9.625C0.583333 10.2917 0.583333 10.9792 0.75 11.6875C0.958333 12.3542 1.3125 12.9583 1.8125 13.5L2.6875 14.3125L12.125 4.9375L18.0625 10.875C18.3125 11.125 18.625 11.25 19 11.25C19.375 11.25 19.7083 11.125 20 10.875ZM20.9375 8.0625L14.9375 2.0625C15.4792 1.60417 16.0833 1.29167 16.75 1.125C17.4167 0.958333 18.0833 0.979167 18.75 1.1875C19.4167 1.35417 20 1.6875 20.5 2.1875L26.1875 7.8125C26.6875 8.35417 27.0208 8.95833 27.1875 9.625C27.3958 10.2917 27.3958 10.9792 27.1875 11.6875C27.0208 12.3542 26.6875 12.9583 26.1875 13.5L15.0625 24.625C14.8125 24.875 14.5 25 14.125 25C13.75 25 13.4375 24.875 13.1875 24.625C12.9375 24.3333 12.8125 24.0208 12.8125 23.6875C12.8125 23.3125 12.9375 23 13.1875 22.75L19.375 16.5625L18.4375 15.625L12.25 21.75C12 22.0417 11.6875 22.1875 11.3125 22.1875C10.9375 22.1875 10.625 22.0417 10.375 21.75C10.125 21.5 10 21.2083 10 20.875C10 20.5 10.125 20.1667 10.375 19.875L16.5625 13.75L15.5625 12.8125L9.4375 18.9375C9.14583 19.1875 8.8125 19.3125 8.4375 19.3125C8.10417 19.3125 7.8125 19.1875 7.5625 18.9375C7.27083 18.6875 7.125 18.375 7.125 18C7.125 17.625 7.27083 17.3125 7.5625 17.0625L13.6875 10.9375L12.75 9.9375L6.5625 16.125C6.3125 16.375 6 16.5 5.625 16.5C5.25 16.5 4.9375 16.375 4.6875 16.125C4.4375 15.875 4.3125 15.5625 4.3125 15.1875C4.3125 14.8125 4.4375 14.5 4.6875 14.25L12.125 6.8125L17.125 11.8125C17.2083 11.8958 17.3542 12.0208 17.5625 12.1875C17.8125 12.3542 18.1042 12.5 18.4375 12.625C18.8125 12.7083 19.2083 12.7083 19.625 12.625C20.0417 12.5 20.4792 12.2292 20.9375 11.8125C21.4375 11.3125 21.6875 10.6875 21.6875 9.9375C21.6875 9.1875 21.4375 8.5625 20.9375 8.0625Z" fill="#1D2930"/>
</svg>
