<svg width="300" height="61" viewBox="0 0 300 61" fill="none" xmlns="http://www.w3.org/2000/svg">
<g clip-path="url(#clip0_677_11447)">
<path d="M0.50528 13.0183H30.4522C33.2189 13.0183 35.4512 13.8159 37.149 15.4112C38.8467 16.9751 39.6956 19.1021 39.6956 21.7922C39.6956 23.3874 39.3026 24.8732 38.5166 26.2495C37.7306 27.6258 36.6459 28.7206 35.2625 29.5339C33.8792 30.3471 32.3071 30.7538 30.5465 30.7538L16.1626 30.8007V45.8618H0.50528V13.0183ZM17.8132 28.0794C18.945 28.0794 19.9825 27.8135 20.9258 27.2817C21.9004 26.7187 22.655 25.968 23.1895 25.0296C23.7554 24.0599 24.0383 23.0277 24.0383 21.9329C24.0383 20.8069 23.7554 19.7746 23.1895 18.8363C22.655 17.8666 21.9004 17.1002 20.9258 16.5372C19.9825 15.9742 18.945 15.6927 17.8132 15.6927H16.1626V28.0794H17.8132ZM49.4405 13.0183H63.2114L77.8311 45.8618H60.0045L55.0526 34.9765H44.6773L40.4329 45.8618H36.9902L49.4405 13.0183ZM53.7321 32.1144L49.4405 22.5898L45.7149 32.1144H53.7321ZM82.524 13.0183H96.3892L110.16 29.44V13.0183H112.99V45.8618H101.907L85.4008 23.9974V45.8618H82.524V13.0183ZM118.467 13.0183H143.274C147.77 13.0183 151.653 14.6135 154.922 17.804C158.161 21.0258 159.78 24.8889 159.78 29.3931C159.78 33.9599 158.161 37.8542 154.922 41.076C151.684 44.2665 147.801 45.8618 143.274 45.8618H118.467V13.0183ZM137.803 43.1405C139.595 43.1405 140.884 42.5618 141.67 41.4044C142.425 40.2784 142.896 38.6831 143.085 36.6187C143.242 35.2737 143.321 32.8651 143.321 29.3931C143.321 26.7031 143.227 24.1381 143.038 21.6983C142.849 19.8528 142.378 18.4453 141.623 17.4756C140.837 16.3183 139.564 15.7396 137.803 15.7396H134.973V43.1405H137.803ZM186.798 46.0964C182.585 46.0964 178.781 45.4551 175.385 44.1727C171.99 42.8902 169.301 40.9978 167.321 38.4954C165.371 35.9618 164.397 32.9277 164.397 29.3931C164.397 25.8898 165.387 22.887 167.368 20.3846C169.349 17.8822 172.021 15.9898 175.385 14.7074C178.781 13.3936 182.585 12.7368 186.798 12.7368C190.979 12.7368 194.752 13.3936 198.116 14.7074C201.512 15.9898 204.184 17.8822 206.134 20.3846C208.114 22.887 209.105 25.8898 209.105 29.3931C209.105 32.9277 208.114 35.9618 206.134 38.4954C204.184 40.9978 201.512 42.8902 198.116 44.1727C194.752 45.4551 190.979 46.0964 186.798 46.0964ZM186.798 43.3281C188.118 43.3281 189.093 42.7338 189.722 41.5452C190.256 40.6381 190.618 39.0272 190.807 36.7125C190.901 35.4926 190.948 33.0528 190.948 29.3931C190.948 25.7021 190.869 23.0903 190.712 21.5576C190.618 19.6808 190.272 18.2576 189.675 17.2879C189.046 16.0993 188.087 15.505 186.798 15.505C185.477 15.505 184.487 16.0993 183.827 17.2879C183.292 18.2263 182.946 19.6495 182.789 21.5576C182.664 23.1841 182.601 25.796 182.601 29.3931C182.601 33.4594 182.648 35.8992 182.742 36.7125C182.868 38.8708 183.214 40.4817 183.78 41.5452C184.44 42.7338 185.446 43.3281 186.798 43.3281ZM214.256 13.0183H245.806C247.347 13.0183 248.762 13.4093 250.051 14.1913C251.371 14.942 252.409 15.9742 253.163 17.2879C253.95 18.5704 254.343 19.978 254.343 21.5107C254.343 23.5438 253.714 25.3893 252.456 27.0471C251.198 28.705 249.611 29.7685 247.693 30.2376C249.391 30.7068 250.774 31.5983 251.843 32.912C252.943 34.2258 253.494 35.7116 253.494 37.3694V45.8618H237.695V35.6803C237.695 34.6793 237.506 33.8974 237.129 33.3343C236.689 32.6775 236.186 32.1926 235.62 31.8798C234.991 31.5357 234.284 31.2855 233.498 31.1291C232.68 30.9727 231.91 30.8789 231.187 30.8476L229.913 30.8007V45.8618H214.256V13.0183ZM231.564 28.0794C232.696 28.0794 233.733 27.8135 234.677 27.2817C235.651 26.7187 236.406 25.968 236.94 25.0296C237.506 24.0599 237.789 23.0277 237.789 21.9329C237.789 20.8069 237.506 19.7746 236.94 18.8363C236.406 17.8666 235.651 17.1002 234.677 16.5372C233.733 15.9742 232.696 15.6927 231.564 15.6927H229.913V28.1263L231.564 28.0794ZM270.837 13.0183H284.608L299.227 45.8618H281.401L276.449 34.9765H266.074L261.829 45.8618H258.387L270.837 13.0183ZM275.128 32.1144L270.837 22.5898L267.111 32.1144H275.128Z" fill="#041119"/>
<path d="M186.648 45.9869C182.435 45.9869 178.63 45.3456 175.235 44.0632C171.839 42.7807 169.151 40.8883 167.17 38.3859C165.221 35.8523 164.246 32.8182 164.246 29.2836C164.246 25.7803 165.237 22.7775 167.217 20.2751C169.198 17.7727 171.871 15.8803 175.235 14.5979C178.63 13.2841 182.435 12.6273 186.648 12.6273C190.829 12.6273 194.602 13.2841 197.966 14.5979C201.362 15.8803 204.034 17.7727 205.983 20.2751C207.964 22.7775 208.954 25.7803 208.954 29.2836C208.954 32.8182 207.964 35.8523 205.983 38.3859C204.034 40.8883 201.362 42.7807 197.966 44.0632C194.602 45.3456 190.829 45.9869 186.648 45.9869ZM186.648 43.2186C187.968 43.2186 188.943 42.6243 189.572 41.4357C190.106 40.5286 190.468 38.9177 190.656 36.603C190.751 35.3831 190.798 32.9433 190.798 29.2836C190.798 25.5926 190.719 22.9808 190.562 21.4481C190.468 19.5713 190.122 18.1481 189.524 17.1784C188.896 15.9898 187.937 15.3955 186.648 15.3955C185.327 15.3955 184.337 15.9898 183.676 17.1784C183.142 18.1168 182.796 19.54 182.639 21.4481C182.513 23.0746 182.45 25.6865 182.45 29.2836C182.45 33.3499 182.497 35.7897 182.592 36.603C182.718 38.7613 183.063 40.3722 183.629 41.4357C184.29 42.6243 185.296 43.2186 186.648 43.2186Z" fill="#041119"/>
<path d="M185.773 0.813296C186.074 -0.271097 187.969 -0.2711 188.271 0.813294C189.827 6.40187 192.871 15.1828 197.605 19.9165C202.339 24.6502 211.12 27.6951 216.708 29.2509C217.793 29.5527 217.793 31.4473 216.708 31.7491C211.12 33.3049 202.339 36.3497 197.605 41.0835C192.871 45.8172 189.827 54.5981 188.271 60.1867C187.969 61.2711 186.074 61.2711 185.773 60.1867C184.217 54.5981 181.172 45.8172 176.438 41.0835C171.705 36.3497 162.924 33.3049 157.335 31.7491C156.251 31.4473 156.251 29.5527 157.335 29.2509C162.924 27.6951 171.705 24.6502 176.438 19.9165C181.172 15.1828 184.217 6.40188 185.773 0.813296Z" fill="#041119"/>
<path d="M187.022 2.85859C187.022 2.85859 189.629 16.2985 195.426 22.0955C201.223 27.8924 214.663 30.5 214.663 30.5C214.663 30.5 201.223 33.1076 195.426 38.9045C189.629 44.7015 187.022 58.1414 187.022 58.1414C187.022 58.1414 184.414 44.7015 178.617 38.9045C172.82 33.1076 159.38 30.5 159.38 30.5C159.38 30.5 172.82 27.8924 178.617 22.0955C184.414 16.2985 187.022 2.85859 187.022 2.85859Z" fill="#041119"/>
<path d="M187.022 2.85859C187.022 2.85859 189.629 16.2985 195.426 22.0955C201.223 27.8924 214.663 30.5 214.663 30.5C214.663 30.5 201.223 33.1076 195.426 38.9045C189.629 44.7015 187.022 58.1414 187.022 58.1414C187.022 58.1414 184.414 44.7015 178.617 38.9045C172.82 33.1076 159.38 30.5 159.38 30.5C159.38 30.5 172.82 27.8924 178.617 22.0955C184.414 16.2985 187.022 2.85859 187.022 2.85859Z" fill="#FBFAF5"/>
<path d="M180.501 14.3326C178.518 14.6643 176.642 15.162 174.872 15.8257C171.367 17.1208 168.582 19.032 166.518 21.5592C165.184 23.1928 164.281 25.0376 163.809 27.0935C168.315 25.45 173.098 23.1721 176.173 20.2071C177.816 18.6221 179.256 16.5665 180.501 14.3326Z" fill="#041119"/>
<path d="M163.688 33.6875C164.111 35.9926 165.038 38.0467 166.469 39.8498C168.533 42.377 171.334 44.2882 174.872 45.5834C176.739 46.2668 178.725 46.77 180.829 47.0928C179.511 44.6281 177.963 42.344 176.173 40.618C173.07 37.6264 168.229 35.3343 163.688 33.6875Z" fill="#041119"/>
<path d="M192.686 47.0876C194.761 46.7646 196.718 46.2632 198.558 45.5834C202.096 44.2882 204.88 42.377 206.911 39.8498C208.359 38.0555 209.299 36.0127 209.731 33.7213C205.217 35.3656 200.421 37.6468 197.34 40.618C195.551 42.3428 194.003 44.6249 192.686 47.0876Z" fill="#041119"/>
<path d="M209.613 27.0606C205.133 25.4196 200.394 23.1524 197.34 20.2071C195.697 18.6236 194.258 16.5703 193.014 14.3388C194.967 14.6705 196.815 15.1661 198.558 15.8257C202.096 17.1208 204.88 19.032 206.911 21.5592C208.238 23.1841 209.139 25.0179 209.613 27.0606Z" fill="#041119"/>
</g>
<defs>
<clipPath id="clip0_677_11447">
<rect width="300" height="61" fill="white"/>
</clipPath>
</defs>
</svg>
