<svg width="150" height="30" viewBox="0 0 150 30" fill="none" xmlns="http://www.w3.org/2000/svg">
<g clip-path="url(#clip0_678_11427)">
<path d="M0.25264 6.40243H15.2261C16.6095 6.40243 17.7256 6.7947 18.5745 7.57926C19.4234 8.34842 19.8478 9.39449 19.8478 10.7175C19.8478 11.502 19.6513 12.2327 19.2583 12.9096C18.8653 13.5865 18.323 14.1249 17.6313 14.5248C16.9396 14.9248 16.1536 15.1248 15.2732 15.1248L8.08128 15.1479V22.555H0.25264V6.40243ZM8.90658 13.8095C9.47251 13.8095 9.99127 13.6788 10.4629 13.4172C10.9502 13.1403 11.3275 12.7711 11.5947 12.3096C11.8777 11.8328 12.0192 11.3251 12.0192 10.7867C12.0192 10.2329 11.8777 9.72524 11.5947 9.26373C11.3275 8.78685 10.9502 8.40996 10.4629 8.13306C9.99127 7.85616 9.47251 7.71771 8.90658 7.71771H8.08128V13.8095H8.90658ZM24.7203 6.40243H31.6057L38.9156 22.555H30.0022L27.5263 17.2016H22.3387L20.2164 22.555H18.4951L24.7203 6.40243ZM26.8661 15.794L24.7203 11.1097L22.8574 15.794H26.8661ZM41.262 6.40243H48.1946L55.0801 14.4787V6.40243H56.4949V22.555H50.9536L42.7004 11.802V22.555H41.262V6.40243ZM59.2337 6.40243H71.6369C73.8849 6.40243 75.8263 7.18698 77.4612 8.75608C79.0804 10.3406 79.8899 12.2404 79.8899 14.4556C79.8899 16.7016 79.0804 18.6168 77.4612 20.2013C75.842 21.7704 73.9006 22.555 71.6369 22.555H59.2337V6.40243ZM68.9016 21.2166C69.7976 21.2166 70.4421 20.932 70.8351 20.3628C71.2124 19.809 71.4482 19.0245 71.5425 18.0092C71.6212 17.3477 71.6604 16.1632 71.6604 14.4556C71.6604 13.1327 71.6133 11.8712 71.519 10.6713C71.4247 9.7637 71.1888 9.07144 70.8116 8.59456C70.4186 8.02537 69.7819 7.74078 68.9016 7.74078H67.4867V21.2166H68.9016ZM93.399 22.6703C91.2925 22.6703 89.3903 22.355 87.6926 21.7243C85.9948 21.0935 84.6507 20.1629 83.6603 18.9322C82.6857 17.6861 82.1984 16.1939 82.1984 14.4556C82.1984 12.7327 82.6935 11.2559 83.6839 10.0252C84.6743 8.79454 86.0105 7.86385 87.6926 7.23313C89.3903 6.58703 91.2925 6.26398 93.399 6.26398C95.4897 6.26398 97.3762 6.58703 99.0582 7.23313C100.756 7.86385 102.092 8.79454 103.067 10.0252C104.057 11.2559 104.552 12.7327 104.552 14.4556C104.552 16.1939 104.057 17.6861 103.067 18.9322C102.092 20.1629 100.756 21.0935 99.0582 21.7243C97.3762 22.355 95.4897 22.6703 93.399 22.6703ZM93.399 21.3089C94.0592 21.3089 94.5465 21.0166 94.8609 20.4321C95.1282 19.9859 95.309 19.1937 95.4033 18.0553C95.4504 17.4554 95.474 16.2555 95.474 14.4556C95.474 12.6404 95.4347 11.3559 95.3561 10.6021C95.309 9.67909 95.136 8.97914 94.8374 8.50226C94.523 7.91769 94.0435 7.62541 93.399 7.62541C92.7387 7.62541 92.2435 7.91769 91.9134 8.50226C91.6462 8.96376 91.4732 9.6637 91.3946 10.6021C91.3318 11.402 91.3003 12.6865 91.3003 14.4556C91.3003 16.4555 91.3239 17.6554 91.3711 18.0553C91.4339 19.1168 91.6069 19.909 91.8898 20.4321C92.2199 21.0166 92.723 21.3089 93.399 21.3089ZM107.128 6.40243H122.903C123.674 6.40243 124.381 6.59472 125.025 6.9793C125.686 7.34851 126.204 7.85616 126.582 8.50226C126.975 9.13298 127.171 9.82523 127.171 10.579C127.171 11.5789 126.857 12.4866 126.228 13.3019C125.599 14.1172 124.805 14.6402 123.846 14.871C124.695 15.1017 125.387 15.5402 125.922 16.1863C126.472 16.8324 126.747 17.5631 126.747 18.3784V22.555H118.847V17.5477C118.847 17.0554 118.753 16.6708 118.564 16.3939C118.344 16.0709 118.093 15.8324 117.81 15.6786C117.495 15.5094 117.142 15.3863 116.749 15.3094C116.34 15.2325 115.955 15.1863 115.593 15.1709L114.957 15.1479V22.555H107.128V6.40243ZM115.782 13.8095C116.348 13.8095 116.867 13.6788 117.338 13.4172C117.826 13.1403 118.203 12.7711 118.47 12.3096C118.753 11.8328 118.895 11.3251 118.895 10.7867C118.895 10.2329 118.753 9.72524 118.47 9.26373C118.203 8.78685 117.826 8.40996 117.338 8.13306C116.867 7.85616 116.348 7.71771 115.782 7.71771H114.957V13.8326L115.782 13.8095ZM135.418 6.40243H142.304L149.614 22.555H140.7L138.224 17.2016H133.037L130.915 22.555H129.193L135.418 6.40243ZM137.564 15.794L135.418 11.1097L133.556 15.794H137.564Z" fill="#FBFAF5"/>
<path d="M93.3238 22.6164C91.2173 22.6164 89.3152 22.3011 87.6174 21.6704C85.9196 21.0397 84.5755 20.109 83.5852 18.8783C82.6105 17.6322 82.1232 16.1401 82.1232 14.4017C82.1232 12.6788 82.6184 11.202 83.6088 9.97132C84.5991 8.74065 85.9353 7.80995 87.6174 7.17924C89.3152 6.53313 91.2173 6.21008 93.3238 6.21008C95.4146 6.21008 97.301 6.53313 98.9831 7.17924C100.681 7.80995 102.017 8.74065 102.992 9.97132C103.982 11.202 104.477 12.6788 104.477 14.4017C104.477 16.1401 103.982 17.6322 102.992 18.8783C102.017 20.109 100.681 21.0397 98.9831 21.6704C97.301 22.3011 95.4146 22.6164 93.3238 22.6164ZM93.3238 21.255C93.9841 21.255 94.4714 20.9627 94.7858 20.3782C95.053 19.9321 95.2338 19.1398 95.3281 18.0014C95.3753 17.4015 95.3989 16.2016 95.3989 14.4017C95.3989 12.5865 95.3596 11.302 95.281 10.5482C95.2338 9.62519 95.0609 8.92525 94.7622 8.44836C94.4478 7.8638 93.9683 7.57151 93.3238 7.57151C92.6636 7.57151 92.1684 7.8638 91.8383 8.44836C91.571 8.90987 91.3981 9.60981 91.3195 10.5482C91.2566 11.3481 91.2252 12.6326 91.2252 14.4017C91.2252 16.4016 91.2487 17.6015 91.2959 18.0014C91.3588 19.0629 91.5317 19.8551 91.8147 20.3782C92.1448 20.9627 92.6478 21.255 93.3238 21.255Z" fill="#FBFAF5"/>
<path d="M92.8863 0.399982C93.0372 -0.133326 93.9845 -0.133328 94.1354 0.399981C94.9133 3.14846 96.4357 7.46694 98.8026 9.79501C101.169 12.1231 105.56 13.6205 108.354 14.3857C108.896 14.5341 108.896 15.4659 108.354 15.6143C105.56 16.3795 101.169 17.8769 98.8026 20.205C96.4357 22.5331 94.9133 26.8515 94.1354 29.6C93.9845 30.1333 93.0372 30.1333 92.8863 29.6C92.1084 26.8515 90.586 22.5331 88.2191 20.205C85.8523 17.8769 81.4618 16.3795 78.6675 15.6143C78.1253 15.4659 78.1253 14.5341 78.6675 14.3857C81.4618 13.6205 85.8523 12.1231 88.2191 9.79501C90.586 7.46694 92.1084 3.14846 92.8863 0.399982Z" fill="#FBFAF5"/>
<path d="M93.5109 1.40586C93.5109 1.40586 94.8146 8.01565 97.7131 10.8666C100.612 13.7176 107.332 15 107.332 15C107.332 15 100.612 16.2824 97.7131 19.1334C94.8146 21.9844 93.5109 28.5941 93.5109 28.5941C93.5109 28.5941 92.2071 21.9844 89.3086 19.1334C86.4101 16.2824 79.6902 15 79.6902 15C79.6902 15 86.4101 13.7176 89.3086 10.8666C92.2071 8.01565 93.5109 1.40586 93.5109 1.40586Z" fill="#FBFAF5"/>
<path d="M93.5109 1.40586C93.5109 1.40586 94.8146 8.01565 97.7131 10.8666C100.612 13.7176 107.332 15 107.332 15C107.332 15 100.612 16.2824 97.7131 19.1334C94.8146 21.9844 93.5109 28.5941 93.5109 28.5941C93.5109 28.5941 92.2071 21.9844 89.3086 19.1334C86.4101 16.2824 79.6902 15 79.6902 15C79.6902 15 86.4101 13.7176 89.3086 10.8666C92.2071 8.01565 93.5109 1.40586 93.5109 1.40586Z" fill="#041119"/>
<path d="M90.2506 7.04881C89.2591 7.21194 88.3209 7.45671 87.436 7.78311C85.6833 8.42009 84.291 9.36002 83.2591 10.6029C82.592 11.4063 82.1406 12.3136 81.9047 13.3247C84.1577 12.5164 86.5489 11.3961 88.0863 9.93794C88.9081 9.15841 89.6282 8.14745 90.2506 7.04881Z" fill="#FBFAF5"/>
<path d="M81.844 16.5676C82.0554 17.7013 82.5189 18.7115 83.2345 19.5983C84.2664 20.8411 85.6669 21.7811 87.436 22.4181C88.3695 22.7542 89.3623 23.0016 90.4144 23.1604C89.7555 21.9483 88.9813 20.8249 88.0863 19.9761C86.535 18.5048 84.1146 17.3775 81.844 16.5676Z" fill="#FBFAF5"/>
<path d="M96.343 23.1578C97.3802 22.999 98.3589 22.7524 99.2788 22.4181C101.048 21.7811 102.44 20.8411 103.456 19.5983C104.179 18.7158 104.649 17.7112 104.865 16.5842C102.608 17.3929 100.21 18.5148 98.6697 19.9761C97.7754 20.8243 97.0016 21.9467 96.343 23.1578Z" fill="#FBFAF5"/>
<path d="M104.806 13.3085C102.567 12.5015 100.197 11.3864 98.6697 9.93794C97.8486 9.15913 97.1291 8.14932 96.5071 7.05187C97.4836 7.21499 98.4075 7.45874 99.2788 7.78311C101.048 8.42009 102.44 9.36002 103.456 10.6029C104.119 11.402 104.569 12.3039 104.806 13.3085Z" fill="#FBFAF5"/>
</g>
<defs>
<clipPath id="clip0_678_11427">
<rect width="150" height="30" fill="white"/>
</clipPath>
</defs>
</svg>
